HIERARCHY
ROOT hip
{
  OFFSET 0 0 0
  CHANNELS 6 Xposition Yposition Zposition Zrotation Yrotation Xrotation
  JOINT abdomen
  {
    OFFSET 0 20.6881 -0.73152
    CHANNELS 3 Zrotation Xrotation Yrotation
    JOINT chest
    {
      OFFSET 0 11.7043 -0.48768
      CHANNELS 3 Zrotation Xrotation Yrotation
      JOINT neck
      {
        OFFSET 0 22.1894 -2.19456
        CHANNELS 3 Zrotation Xrotation Yrotation
        JOINT head
        {
          OFFSET -0.24384 7.07133 1.2192
          CHANNELS 3 Zrotation Xrotation Yrotation
          JOINT leftEye
          {
            OFFSET 4.14528 8.04674 8.04672
            CHANNELS 3 Zrotation Xrotation Yrotation
            End Site
            {
              OFFSET 1 0 0
            }
          }
          JOINT rightEye
          {
            OFFSET -3.6576 8.04674 8.04672
            CHANNELS 3 Zrotation Xrotation Yrotation
            End Site
            {
              OFFSET 1 0 0
            }
          }
        }
      }
      JOINT rCollar
      {
        OFFSET -2.68224 19.2634 -4.8768
        CHANNELS 3 Zrotation Xrotation Yrotation
        JOINT rShldr
        {
          OFFSET -8.77824 -1.95073 1.46304
          CHANNELS 3 Zrotation Xrotation Yrotation
          JOINT rForeArm
          {
            OFFSET -28.1742 -1.7115 0.48768
            CHANNELS 3 Zrotation Xrotation Yrotation
            JOINT rHand
            {
              OFFSET -22.5879 0.773209 7.07136
              CHANNELS 3 Zrotation Xrotation Yrotation
              JOINT rThumb1
              {
                OFFSET -1.2192 -0.487915 3.41376
                CHANNELS 3 Zrotation Xrotation Yrotation
                JOINT rThumb2
                {
                  OFFSET -3.37035 -0.52449 3.41376
                  CHANNELS 3 Zrotation Xrotation Yrotation
                  End Site
                  {
                    OFFSET -1.78271 -1.18214 1.43049
                  }
                }
              }
              JOINT rIndex1
              {
                OFFSET -7.75947 0.938293 5.60832
                CHANNELS 3 Zrotation Xrotation Yrotation
                JOINT rIndex2
                {
                  OFFSET -2.54057 -0.884171 1.56538
                  CHANNELS 3 Zrotation Xrotation Yrotation
                  End Site
                  {
                    OFFSET -1.62519 -0.234802 1.16502
                  }
                }
              }
              JOINT rMid1
              {
                OFFSET -8.24714 1.18213 3.41376
                CHANNELS 3 Zrotation Xrotation Yrotation
                JOINT rMid2
                {
                  OFFSET -3.10165 -0.590103 1.0647
                  CHANNELS 3 Zrotation Xrotation Yrotation
                  End Site
                  {
                    OFFSET -2.48547 -0.328903 0.83742
                  }
                }
              }
              JOINT rRing1
              {
                OFFSET -8.82822 0.546677 1.51678
                CHANNELS 3 Zrotation Xrotation Yrotation
                JOINT rRing2
                {
                  OFFSET -2.60934 -0.819778 -0.0198488
                  CHANNELS 3 Zrotation Xrotation Yrotation
                  End Site
                  {
                    OFFSET -2.33842 -0.294052 0.168128
                  }
                }
              }
              JOINT rPinky1
              {
                OFFSET -8.27202 -0.0477905 -0.4584
                CHANNELS 3 Zrotation Xrotation Yrotation
                JOINT rPinky2
                {
                  OFFSET -1.82734 -0.647385 -0.700984
                  CHANNELS 3 Zrotation Xrotation Yrotation
                  End Site
                  {
                    OFFSET -1.69225 -0.51767 -0.607171
                  }
                }
              }
            }
          }
        }
      }
      JOINT lCollar
      {
        OFFSET 2.68224 19.2634 -4.8768
        CHANNELS 3 Zrotation Xrotation Yrotation
        JOINT lShldr
        {
          OFFSET 8.77824 -1.95073 1.46304
          CHANNELS 3 Zrotation Xrotation Yrotation
          JOINT lForeArm
          {
            OFFSET 28.1742 -1.7115 0.48768
            CHANNELS 3 Zrotation Xrotation Yrotation
            JOINT lHand
            {
              OFFSET 22.5879 0.773209 7.07136
              CHANNELS 3 Zrotation Xrotation Yrotation
              JOINT lThumb1
              {
                OFFSET 1.2192 -0.487915 3.41376
                CHANNELS 3 Zrotation Xrotation Yrotation
                JOINT lThumb2
                {
                  OFFSET 3.37035 -0.52449 3.41376
                  CHANNELS 3 Zrotation Xrotation Yrotation
                  End Site
                  {
                    OFFSET 1.78271 -1.18214 1.43049
                  }
                }
              }
              JOINT lIndex1
              {
                OFFSET 7.75947 0.938293 5.60832
                CHANNELS 3 Zrotation Xrotation Yrotation
                JOINT lIndex2
                {
                  OFFSET 2.54057 -0.884171 1.56538
                  CHANNELS 3 Zrotation Xrotation Yrotation
                  End Site
                  {
                    OFFSET 1.62519 -0.234802 1.16502
                  }
                }
              }
              JOINT lMid1
              {
                OFFSET 8.24714 1.18213 3.41376
                CHANNELS 3 Zrotation Xrotation Yrotation
                JOINT lMid2
                {
                  OFFSET 3.10165 -0.590103 1.0647
                  CHANNELS 3 Zrotation Xrotation Yrotation
                  End Site
                  {
                    OFFSET 2.48547 -0.328903 0.83742
                  }
                }
              }
              JOINT lRing1
              {
                OFFSET 8.82822 0.546677 1.51678
                CHANNELS 3 Zrotation Xrotation Yrotation
                JOINT lRing2
                {
                  OFFSET 2.60934 -0.819778 -0.0198488
                  CHANNELS 3 Zrotation Xrotation Yrotation
                  End Site
                  {
                    OFFSET 2.33842 -0.294052 0.168128
                  }
                }
              }
              JOINT lPinky1
              {
                OFFSET 8.27202 -0.0477905 -0.4584
                CHANNELS 3 Zrotation Xrotation Yrotation
                JOINT lPinky2
                {
                  OFFSET 1.82734 -0.647385 -0.700984
                  CHANNELS 3 Zrotation Xrotation Yrotation
                  End Site
                  {
                    OFFSET 1.69225 -0.51767 -0.607171
                  }
                }
              }
            }
          }
        }
      }
    }
  }
  JOINT rButtock
  {
    OFFSET -8.77824 4.35084 1.2192
    CHANNELS 3 Zrotation Xrotation Yrotation
    JOINT rThigh
    {
      OFFSET 0 -1.70687 -2.19456
      CHANNELS 3 Zrotation Xrotation Yrotation
      JOINT rShin
      {
        OFFSET 0 -36.8199 0.73152
        CHANNELS 3 Zrotation Xrotation Yrotation
        JOINT rFoot
        {
          OFFSET 0.73152 -45.1104 -5.12064
          CHANNELS 3 Zrotation Xrotation Yrotation
          End Site
          {
            OFFSET -1.1221 -3.69964 12.103
          }
        }
      }
    }
  }
  JOINT lButtock
  {
    OFFSET 8.77824 4.35084 1.2192
    CHANNELS 3 Zrotation Xrotation Yrotation
    JOINT lThigh
    {
      OFFSET 0 -1.70687 -2.19456
      CHANNELS 3 Zrotation Xrotation Yrotation
      JOINT lShin
      {
        OFFSET 0 -36.8199 0.73152
        CHANNELS 3 Zrotation Xrotation Yrotation
        JOINT lFoot
        {
          OFFSET -0.73152 -45.1104 -5.12064
          CHANNELS 3 Zrotation Xrotation Yrotation
          End Site
          {
            OFFSET 1.1221 -3.69964 12.103
          }
        }
      }
    }
  }
}
MOTION
Frames:	4
Frame Time:	0.03333
3.7908999999999997 73.8393 -32.5241 -0.177963 3.112922 11.768553 -1.234043 5.030537 -166.197819 1.598914 4.522772 175.185468 5.178379 21.02943 65.40677 -37.383249 -3.019526 -96.015745 0.002559 0.0 0.001567 -0.003126 -0.0 0.002088 -6.25143 26.219179 7.46802 -161.861058 -13.599675 115.027071 -1.369844 0.085312 -126.872949 155.147791 -39.335105 137.444599 -94.791038 37.829011 54.28439 -113.686997 -11.891919 71.826817 169.570465 -65.842954 109.958321 7.881988 14.199238 -5.26044 -160.672165 -6.668125 143.244779 -176.278486 -41.075753 142.585189 -145.100174 -1.519635 -178.649362 11.336765 13.754899 -7.379002 8.142737 25.599989 7.178217 -146.716786 8.120205 -142.695059 0.049385 0.292357 -0.065073 -77.154751 14.156127 2.471205 8.934228 4.588603 -104.348318 4.321647 4.649149 1.188639 19.687664 17.544016 -5.975627 155.845177 -56.816986 -104.554918 -37.217932 -57.917086 0.640441 160.849382 -21.384879 -113.282111 89.835549 60.700639 -81.262323 158.783595 7.64643 -141.394224 0.000906 -0.018657 0.004999 156.565152 -30.817309 -175.467743 149.638501 27.486801 145.6192 -3.407157 3.602549 0.883246 -179.997316 75.750084 -0.002769 -167.359571 30.859642 -23.616031 -47.839575 57.386886 -43.817996 103.210324 58.868566 5.557471 179.991113 75.749139 0.006081 173.85646 22.895304 124.587892 68.605265 -27.126347 -146.405442 173.557801 -30.493204 -71.881631
3.9015 74.1272 -32.453900000000004 -0.103036 3.2803 11.587382 -0.389819 5.246357 -141.167012 4.311298 3.034536 150.023231 7.263899 26.181649 96.491307 -39.46789 17.902386 -120.815456 0.000294 -0.0 -0.003937 0.001278 0.0 0.003046 -9.651996 34.836143 11.199285 60.33721 -19.551007 69.555353 -160.766142 -48.369042 63.261273 151.268971 -44.733795 134.107495 -5.225236 5.067232 1.027878 -25.068032 20.095909 24.652378 -151.352665 -17.158391 121.133501 -61.412534 57.301464 45.376521 23.902851 -61.334002 1.398991 2.768713 0.811552 0.196517 -69.297929 72.945228 87.017997 -159.830314 -0.81917 176.283157 0.098016 0.258062 0.093527 53.410387 84.960861 -15.4905 5.824849 24.937205 -6.990366 159.781366 -71.175228 -114.898341 -138.273065 26.85541 41.798368 39.160451 61.494912 -21.8632 177.936963 -15.505564 -89.546682 -133.376758 -58.422578 -97.335236 -112.659145 -76.286983 -61.487506 -3.281022 21.401565 1.167421 160.67457 -6.667698 -143.244848 172.314368 -31.360998 -143.653508 0.019937 -1.725091 0.542925 44.174219 77.339004 -57.533238 24.988278 -37.660451 24.057978 152.469746 32.164083 147.350111 -179.998416 75.749242 -0.0 -169.198632 30.023143 107.356609 62.219537 -25.568783 -31.573448 -35.745954 -63.607679 -103.105841 0.000597 0.0004 -0.000768 -8.162252 -50.044225 15.115694 38.76669 60.947977 -75.665232 34.249295 14.143352 32.482814
4.0209 74.3527 -32.3733 -0.169998 3.394771 11.406614 -1.238165 4.594345 -164.899572 1.806347 4.193078 173.891252 6.49018 30.672047 123.064756 -33.420119 34.264041 -144.082048 -0.002864 -0.0 0.001165 0.00282 0.0 0.000641 -151.981419 14.727892 157.382212 166.539154 -46.316175 -151.52534 -6.786036 6.349921 95.258371 -5.50582 29.336991 2.112138 -164.698765 -2.371574 89.586307 -134.190408 7.454234 65.643399 -50.386571 40.826482 40.024467 -67.699182 50.430763 47.78589 26.682378 -64.580742 3.247796 3.254649 -0.639084 0.017756 -0.000181 -0.0185 -0.005891 -154.83099 6.43839 171.002537 -124.84962 -29.036498 -122.619461 -147.552448 14.096534 -142.592925 13.745199 42.431176 -15.570358 -67.832605 12.289571 -37.950437 -80.682769 30.687485 -88.188093 127.976857 67.872591 -105.464196 -9.389849 -9.381186 0.682516 78.845724 30.0277 -69.131055 129.577928 16.761128 -108.785125 -82.170149 -68.134206 -33.69245 175.931719 -50.680557 -144.035193 -3.021116 0.158334 -0.323233 145.123523 1.894383 179.724201 71.387209 -78.007557 92.744044 146.228018 15.470054 142.74757 -15.864419 40.777496 -5.819773 0.0 -0.000214 0.00133 13.889098 -42.30561 9.654797 -18.626083 65.69824 -71.272895 99.213308 54.312778 8.691028 0.005986 -0.000214 0.005986 -6.425128 -49.530233 -46.304006 -62.634634 52.424871 156.81205 -1.241346 -66.422962 -87.925094
4.1192 74.5618 -32.300000000000004 -0.283676 3.429726 11.203797 -2.006258 9.099531 7.089673 -0.976777 -9.100267 2.05109 -11.899442 33.723424 -122.536767 40.09772 27.786802 83.5469 0.002073 0.0 0.002299 0.001711 -0.0 -0.003209 -0.049249 0.292367 0.065084 71.781331 -12.427469 42.903854 63.972115 76.061254 34.376312 -16.326606 53.133614 7.061755 -0.441273 0.435418 0.069379 -133.281525 -32.796655 116.746324 37.218288 -57.916974 -0.64036 -48.57638 50.599788 39.793604 -36.037415 51.722473 29.833251 3.604503 -0.580846 -0.006464 -145.122033 1.976898 -179.747855 -156.648255 15.223383 178.986904 -145.172681 12.066931 -141.824572 -10.974968 -25.321305 -13.335598 142.97356 39.43177 -147.390461 -106.838934 -18.625436 -121.186099 -171.787178 7.844761 -42.191518 -178.185339 -3.106217 -143.880956 -114.539856 -50.246587 -55.721608 16.088303 -57.253496 31.357457 46.208709 39.65345 -36.317476 102.514702 46.77476 -77.142827 -68.981919 -80.154725 -40.576454 163.416808 -4.576915 -143.140088 0.000307 0.064054 -0.018672 -11.107622 -13.792227 1.71151 24.987998 -37.659432 24.060603 22.345026 -40.115246 23.912149 -179.999655 75.750145 -0.000236 -168.929341 32.377833 31.045481 49.771743 41.171517 -9.388722 179.340566 -21.51161 74.021411 -179.99541 75.750145 -0.003538 175.720804 26.150539 -82.882539 -66.319342 3.899994 70.238372 32.772292 3.565863 21.183306
